<svg width="22" height="24" viewBox="0 0 22 24" fill="none" xmlns="http://www.w3.org/2000/svg">
<path d="M22 3.531C22 1.425 20.579 0 18.476 0H3.524C1.422 0 0 1.424 0 3.531V24L1.805 21.899V3.531C1.805 3.07561 1.9857 2.63883 2.30742 2.31654C2.62915 1.99425 3.06561 1.81279 3.521 1.812H18.473C18.9283 1.81306 19.3646 1.9946 19.6863 2.31683C20.008 2.63907 20.1887 3.07569 20.189 3.531V18.368C20.189 18.8234 20.0083 19.2602 19.6866 19.5825C19.3649 19.9047 18.9284 20.0862 18.473 20.087H5.93L4.138 21.885L18.476 21.899C20.578 21.899 22 20.475 22 18.368V3.531Z" fill="#D1D1D1"/>
<path d="M4.132 21.899L4.146 21.885H4.121L4.132 21.899Z" fill="black"/>
<path d="M15.221 17.6398L13.7231 15.4723L11.8042 12.8079H13.0743L14.5377 14.9477L16.4911 17.6398H15.221ZM11.7697 17.6398L13.6127 15.0099L14.3996 15.5552L12.9708 17.6398H11.7697ZM14.6481 15.3964L13.8681 14.8718L15.221 12.8079H16.4221L14.6481 15.3964Z" fill="#D1D1D1"/>
<path d="M6 17.6398V12.8079H6.94566L8.70582 15.6725L8.08459 15.6656L9.86546 12.8079H10.7697V17.6398H9.75502V15.9831C9.75502 15.569 9.76422 15.1962 9.78263 14.8649C9.80564 14.5336 9.84245 14.2046 9.89307 13.8778L10.0173 14.2023L8.60228 16.3973H8.14671L6.75929 14.2161L6.87663 13.8778C6.92725 14.1861 6.96176 14.5037 6.98017 14.8304C7.00318 15.1525 7.01468 15.5368 7.01468 15.9831V17.6398H6Z" fill="#D1D1D1"/>
<path d="M12.4255 10.8079V5.17078H13.6335V9.72075H16.1863V10.8079H12.4255Z" fill="#D1D1D1"/>
<path d="M6.61643 10.8079V5.17078H7.82439V10.8079H6.61643ZM7.17209 8.56916V7.53032H10.0873V8.56916H7.17209ZM7.17209 6.25794V5.17078H10.4255V6.25794H7.17209Z" fill="#D1D1D1"/>
</svg>
